<svg id="Layer_3" enable-background="new 0 0 64 64" height="512" viewBox="0 0 64 64" width="512" xmlns="http://www.w3.org/2000/svg"><g><path d="m52 21h-40c-.552 0-1 .447-1 1v6c0 .277.112.527.294.708l16.706 16.706v6.586c0 .321.154.623.416.812.172.124.377.188.584.188.106 0 .213-.017.316-.052l6-2c.409-.136.684-.517.684-.948v-4.586l16.706-16.706c.182-.181.294-.431.294-.708v-6c0-.553-.448-1-1-1zm-39 2h38v4h-38zm21.293 21.293c-.188.187-.293.441-.293.707v4.279l-4 1.333v-5.612c0-.266-.105-.52-.293-.707l-15.293-15.293h35.172z"/><path d="m14.472 55.118c-.325-.175-.72-.154-1.026.05l-3 2 1.109 1.664 1.445-.964v4.132h2v-6c0-.369-.203-.708-.528-.882z"/><path d="m22 57h-4c-.552 0-1 .447-1 1v4c0 .553.448 1 1 1h4c.552 0 1-.447 1-1v-4c0-.553-.448-1-1-1zm-1 4h-2v-2h2z"/><path d="m29.472 55.118c-.325-.175-.719-.154-1.026.05l-3 2 1.109 1.664 1.445-.964v4.132h2v-6c0-.369-.203-.708-.528-.882z"/><path d="m37 57h-4c-.552 0-1 .447-1 1v4c0 .553.448 1 1 1h4c.552 0 1-.447 1-1v-4c0-.553-.448-1-1-1zm-1 4h-2v-2h2z"/><path d="m44.472 55.118c-.325-.175-.72-.154-1.026.05l-3 2 1.109 1.664 1.445-.964v4.132h2v-6c0-.369-.203-.708-.528-.882z"/><path d="m52 57h-4c-.552 0-1 .447-1 1v4c0 .553.448 1 1 1h4c.552 0 1-.447 1-1v-4c0-.553-.448-1-1-1zm-1 4h-2v-2h2z"/><path d="m22 18v-16c0-.553-.448-1-1-1h-14c-.552 0-1 .447-1 1v16c0 .553.448 1 1 1h14c.552 0 1-.447 1-1zm-2-1h-12v-14h12z"/><path d="m9 4h2v2h-2z"/><path d="m12 4h7v2h-7z"/><path d="m17 8h2v2h-2z"/><path d="m9 8h7v2h-7z"/><path d="m25 19h14c.552 0 1-.447 1-1v-16c0-.553-.448-1-1-1h-14c-.552 0-1 .447-1 1v16c0 .553.448 1 1 1zm1-16h12v14h-12z"/><path d="m27 4h2v2h-2z"/><path d="m30 4h7v2h-7z"/><path d="m35 8h2v2h-2z"/><path d="m27 8h7v2h-7z"/><path d="m57 1h-14c-.552 0-1 .447-1 1v16c0 .553.448 1 1 1h14c.552 0 1-.447 1-1v-16c0-.553-.448-1-1-1zm-1 16h-12v-14h12z"/><path d="m45 4h2v2h-2z"/><path d="m48 4h7v2h-7z"/><path d="m53 8h2v2h-2z"/><path d="m45 8h7v2h-7z"/></g></svg>