<?xml version="1.0"?>
<svg xmlns="http://www.w3.org/2000/svg" xmlns:xlink="http://www.w3.org/1999/xlink" version="1.1" id="Capa_1" x="0px" y="0px" viewBox="0 0 512.025 512.025" style="enable-background:new 0 0 512.025 512.025;" xml:space="preserve" width="512px" height="512px"><g><g>
	<g>
		<g>
			<path d="M480.013,304.093c0,44.8-26.88,48-32,48H54.573l84.64-84.64l-22.56-22.72l-112,112c-6.204,6.241-6.204,16.319,0,22.56     l112,112l22.56-22.56l-84.64-84.64h393.44c22.08,0,64-16,64-80v-48h-32V304.093z" data-original="#000000" class="active-path" data-old_color="#000000" fill="#000000"/>
			<path d="M32.013,208.093c0-44.8,26.88-48,32-48h393.44l-84.64,84.64l22.56,22.56l112-112c6.204-6.241,6.204-16.319,0-22.56     l-112-112l-22.72,22.72l84.8,84.64H64.013c-22.08,0-64,16-64,80v48h32V208.093z" data-original="#000000" class="active-path" data-old_color="#000000" fill="#000000"/>
		</g>
	</g>
</g></g> </svg>
