<svg id="Layer_3" enable-background="new 0 0 64 64" height="512" viewBox="0 0 64 64" width="512" xmlns="http://www.w3.org/2000/svg"><g><path d="m13 23h38v4h-38z"/><path d="m34 49.279v-4.279c0-.266.105-.52.293-.707l15.293-15.293h-35.172l15.293 15.293c.188.187.293.441.293.707v5.612z"/><path d="m14.472 55.118c-.325-.175-.72-.154-1.026.05l-3 2 1.109 1.664 1.445-.964v4.132h2v-6c0-.369-.203-.708-.528-.882z"/><path d="m22 57h-4c-.552 0-1 .447-1 1v4c0 .553.448 1 1 1h4c.552 0 1-.447 1-1v-4c0-.553-.448-1-1-1zm-1 4h-2v-2h2z"/><path d="m29.472 55.118c-.325-.175-.719-.154-1.026.05l-3 2 1.109 1.664 1.445-.964v4.132h2v-6c0-.369-.203-.708-.528-.882z"/><path d="m37 57h-4c-.552 0-1 .447-1 1v4c0 .553.448 1 1 1h4c.552 0 1-.447 1-1v-4c0-.553-.448-1-1-1zm-1 4h-2v-2h2z"/><path d="m44.472 55.118c-.325-.175-.72-.154-1.026.05l-3 2 1.109 1.664 1.445-.964v4.132h2v-6c0-.369-.203-.708-.528-.882z"/><path d="m52 57h-4c-.552 0-1 .447-1 1v4c0 .553.448 1 1 1h4c.552 0 1-.447 1-1v-4c0-.553-.448-1-1-1zm-1 4h-2v-2h2z"/><path d="m20 3h-12v14h12zm-11 1h2v2h-2zm7 6h-7v-2h7zm3 0h-2v-2h2zm0-4h-7v-2h7z"/><path d="m38 3h-12v14h12zm-11 1h2v2h-2zm7 6h-7v-2h7zm3 0h-2v-2h2zm0-4h-7v-2h7z"/><path d="m44 3v14h12v-14zm1 1h2v2h-2zm7 6h-7v-2h7zm3 0h-2v-2h2zm0-4h-7v-2h7z"/></g></svg>