<svg xmlns="http://www.w3.org/2000/svg" width="512" height="512" viewBox="0 0 512 512">
  <g id="Group_5" data-name="Group 5" transform="translate(-393 -206)">
    <rect id="Rectangle_1" data-name="Rectangle 1" width="512" height="512" transform="translate(393 206)" fill="#f39c12"/>
    <g id="check" transform="translate(393 206)">
      <g id="Group_2" data-name="Group 2">
        <g id="Group_1" data-name="Group 1">
          <path id="Path_1" data-name="Path 1" d="M480,0H32A32.032,32.032,0,0,0,0,32V480a32.032,32.032,0,0,0,32,32H480a32.032,32.032,0,0,0,32-32V32A32.032,32.032,0,0,0,480,0Zm0,480-448,.016V32H480Z" fill="#f39c12"/>
        </g>
      </g>
      <g id="Group_4" data-name="Group 4" transform="translate(0 -10)">
        <g id="Group_3" data-name="Group 3">
          <path id="Path_2" data-name="Path 2" d="M372.688,164.688,208,329.376l-68.688-68.688-22.624,22.624,80,80a15.992,15.992,0,0,0,22.624,0l176-176Z" fill="#fff"/>
        </g>
      </g>
    </g>
  </g>
</svg>
