<svg id="Capa_1" enable-background="new 0 0 512 512" height="512" viewBox="0 0 512 512" width="512" xmlns="http://www.w3.org/2000/svg"><g><g><g><path d="m444.468 246.615c0-18.432-14.995-33.427-33.427-33.427h-8.488v-139.379h15.086v33.361c0 5.522 4.478 10 10 10s10-4.478 10-10v-43.361c0-5.523-4.478-10-10-10h-25.086v-23.256c0-16.847-13.706-30.553-30.553-30.553h-232c-16.847 0-30.553 13.706-30.553 30.553v182.636h-8.488c-18.432 0-33.427 14.995-33.427 33.427 0 16.916 12.633 30.928 28.958 33.12v21.353c0 54.631 37.859 100.578 88.717 113.005l-15.12 86.178c-.51 2.91.292 5.897 2.192 8.159 1.9 2.263 4.703 3.569 7.658 3.569h156.425c2.954 0 5.758-1.307 7.657-3.568 1.9-2.263 2.703-5.25 2.192-8.159l-15.119-86.179c50.858-12.427 88.717-58.374 88.717-113.005v-22.221c14.191-3.862 24.659-16.854 24.659-32.253zm-315.021-216.062c0-5.819 4.734-10.553 10.553-10.553h232c5.818 0 10.553 4.734 10.553 10.553v23.256h-253.106zm0 43.256h253.106v139.38h-253.106zm195.007 418.191h-132.61l13.134-74.858c2.591.173 5.202.27 7.835.27h90.673c2.634 0 5.245-.097 7.836-.27zm86.587-231.957h-109.835c-5.523 0-10 4.478-10 10s4.478 10 10 10h98.603v21.046c0 53.113-43.21 96.323-96.323 96.323h-90.673c-53.113 0-96.323-43.21-96.323-96.323v-21.046h94.305c5.523 0 10-4.478 10-10s-4.477-10-10-10h-109.836c-7.404 0-13.427-6.023-13.427-13.428 0-7.403 6.024-13.427 13.427-13.427h310.082c7.403 0 13.427 6.023 13.427 13.427 0 7.405-6.023 13.428-13.427 13.428z"/><path d="m265.42 266.22c-1.637-3.926-5.695-6.456-9.949-6.147-4.153.301-7.75 3.224-8.896 7.225-1.15 4.013.389 8.444 3.787 10.874 3.351 2.398 7.938 2.466 11.368.188 3.919-2.604 5.502-7.795 3.69-12.14z"/></g></g></g></svg>